<?xml version="1.0" encoding="UTF-8" standalone="no"?>
<!-- Generator: Adobe Illustrator 14.0.0, SVG Export Plug-In . SVG Version: 6.00 Build 43363)  -->

<svg
   xmlns:a="http://ns.adobe.com/AdobeSVGViewerExtensions/3.0/"
   xmlns:dc="http://purl.org/dc/elements/1.1/"
   xmlns:cc="http://creativecommons.org/ns#"
   xmlns:rdf="http://www.w3.org/1999/02/22-rdf-syntax-ns#"
   xmlns:svg="http://www.w3.org/2000/svg"
   xmlns="http://www.w3.org/2000/svg"
   xmlns:xlink="http://www.w3.org/1999/xlink"
   xmlns:sodipodi="http://sodipodi.sourceforge.net/DTD/sodipodi-0.dtd"
   xmlns:inkscape="http://www.inkscape.org/namespaces/inkscape"
   version="1.1"
   x="0px"
   y="0px"
   width="200"
   height="100"
   viewBox="0 0 200 100"
   enable-background="new 0 0 200 100"
   xml:space="preserve"
   id="svg2"
   inkscape:version="0.47 r22583"
   sodipodi:docname="School-Net-8_Web-Cam_200x100.svg"
   inkscape:export-filename="/home/akrherz/projects/nwnwebsite/html/images/clogos/KCCI-035_cam.png"
   inkscape:export-xdpi="89.719627"
   inkscape:export-ydpi="89.719627"
   style="display:inline"><metadata
   id="metadata166"><rdf:RDF><cc:Work
       rdf:about=""><dc:format>image/svg+xml</dc:format><dc:type
         rdf:resource="http://purl.org/dc/dcmitype/StillImage" /><dc:title></dc:title></cc:Work></rdf:RDF></metadata><defs
   id="defs164"><inkscape:perspective
   sodipodi:type="inkscape:persp3d"
   inkscape:vp_x="0 : 50 : 1"
   inkscape:vp_y="0 : 1000 : 0"
   inkscape:vp_z="200 : 50 : 1"
   inkscape:persp3d-origin="100 : 33.333333 : 1"
   id="perspective168" />
	
	
	
	
	
	
	
	
	
	
	

		
		
		
		
		
		
		
	<inkscape:perspective
   id="perspective3049"
   inkscape:persp3d-origin="0.5 : 0.33333333 : 1"
   inkscape:vp_z="1 : 0.5 : 1"
   inkscape:vp_y="0 : 1000 : 0"
   inkscape:vp_x="0 : 0.5 : 1"
   sodipodi:type="inkscape:persp3d" /><inkscape:perspective
   id="perspective3131"
   inkscape:persp3d-origin="0.5 : 0.33333333 : 1"
   inkscape:vp_z="1 : 0.5 : 1"
   inkscape:vp_y="0 : 1000 : 0"
   inkscape:vp_x="0 : 0.5 : 1"
   sodipodi:type="inkscape:persp3d" /><inkscape:perspective
   id="perspective3146"
   inkscape:persp3d-origin="0.5 : 0.33333333 : 1"
   inkscape:vp_z="1 : 0.5 : 1"
   inkscape:vp_y="0 : 1000 : 0"
   inkscape:vp_x="0 : 0.5 : 1"
   sodipodi:type="inkscape:persp3d" /><inkscape:perspective
   id="perspective3161"
   inkscape:persp3d-origin="0.5 : 0.33333333 : 1"
   inkscape:vp_z="1 : 0.5 : 1"
   inkscape:vp_y="0 : 1000 : 0"
   inkscape:vp_x="0 : 0.5 : 1"
   sodipodi:type="inkscape:persp3d" /><inkscape:perspective
   id="perspective3178"
   inkscape:persp3d-origin="0.5 : 0.33333333 : 1"
   inkscape:vp_z="1 : 0.5 : 1"
   inkscape:vp_y="0 : 1000 : 0"
   inkscape:vp_x="0 : 0.5 : 1"
   sodipodi:type="inkscape:persp3d" /><inkscape:perspective
   id="perspective3237"
   inkscape:persp3d-origin="0.5 : 0.33333333 : 1"
   inkscape:vp_z="1 : 0.5 : 1"
   inkscape:vp_y="0 : 1000 : 0"
   inkscape:vp_x="0 : 0.5 : 1"
   sodipodi:type="inkscape:persp3d" /><inkscape:perspective
   id="perspective3254"
   inkscape:persp3d-origin="0.5 : 0.33333333 : 1"
   inkscape:vp_z="1 : 0.5 : 1"
   inkscape:vp_y="0 : 1000 : 0"
   inkscape:vp_x="0 : 0.5 : 1"
   sodipodi:type="inkscape:persp3d" /><inkscape:perspective
   id="perspective3271"
   inkscape:persp3d-origin="0.5 : 0.33333333 : 1"
   inkscape:vp_z="1 : 0.5 : 1"
   inkscape:vp_y="0 : 1000 : 0"
   inkscape:vp_x="0 : 0.5 : 1"
   sodipodi:type="inkscape:persp3d" /><inkscape:perspective
   id="perspective3290"
   inkscape:persp3d-origin="0.5 : 0.33333333 : 1"
   inkscape:vp_z="1 : 0.5 : 1"
   inkscape:vp_y="0 : 1000 : 0"
   inkscape:vp_x="0 : 0.5 : 1"
   sodipodi:type="inkscape:persp3d" /><inkscape:perspective
   id="perspective3307"
   inkscape:persp3d-origin="0.5 : 0.33333333 : 1"
   inkscape:vp_z="1 : 0.5 : 1"
   inkscape:vp_y="0 : 1000 : 0"
   inkscape:vp_x="0 : 0.5 : 1"
   sodipodi:type="inkscape:persp3d" /><inkscape:perspective
   id="perspective3892"
   inkscape:persp3d-origin="0.5 : 0.33333333 : 1"
   inkscape:vp_z="1 : 0.5 : 1"
   inkscape:vp_y="0 : 1000 : 0"
   inkscape:vp_x="0 : 0.5 : 1"
   sodipodi:type="inkscape:persp3d" /><inkscape:perspective
   id="perspective4046"
   inkscape:persp3d-origin="0.5 : 0.33333333 : 1"
   inkscape:vp_z="1 : 0.5 : 1"
   inkscape:vp_y="0 : 1000 : 0"
   inkscape:vp_x="0 : 0.5 : 1"
   sodipodi:type="inkscape:persp3d" /><inkscape:perspective
   id="perspective4073"
   inkscape:persp3d-origin="0.5 : 0.33333333 : 1"
   inkscape:vp_z="1 : 0.5 : 1"
   inkscape:vp_y="0 : 1000 : 0"
   inkscape:vp_x="0 : 0.5 : 1"
   sodipodi:type="inkscape:persp3d" /><inkscape:perspective
   id="perspective4102"
   inkscape:persp3d-origin="0.5 : 0.33333333 : 1"
   inkscape:vp_z="1 : 0.5 : 1"
   inkscape:vp_y="0 : 1000 : 0"
   inkscape:vp_x="0 : 0.5 : 1"
   sodipodi:type="inkscape:persp3d" /><inkscape:perspective
   id="perspective4127"
   inkscape:persp3d-origin="0.5 : 0.33333333 : 1"
   inkscape:vp_z="1 : 0.5 : 1"
   inkscape:vp_y="0 : 1000 : 0"
   inkscape:vp_x="0 : 0.5 : 1"
   sodipodi:type="inkscape:persp3d" /></defs><sodipodi:namedview
   pagecolor="#ffffff"
   bordercolor="#666666"
   borderopacity="1"
   objecttolerance="10"
   gridtolerance="10"
   guidetolerance="10"
   inkscape:pageopacity="0"
   inkscape:pageshadow="2"
   inkscape:window-width="987"
   inkscape:window-height="609"
   id="namedview162"
   showgrid="false"
   inkscape:zoom="2.36"
   inkscape:cx="98.35641"
   inkscape:cy="67.262897"
   inkscape:window-x="577"
   inkscape:window-y="29"
   inkscape:window-maximized="0"
   inkscape:current-layer="svg2" />
<g
   id="Layer_1">
	<linearGradient
   id="SVGID_1_"
   gradientUnits="userSpaceOnUse"
   x1="200.625"
   y1="50.1255"
   x2="0.00048828131"
   y2="50.1255">
		<stop
   offset="0.1091"
   style="stop-color:#FFFFFF"
   id="stop6" />
		<stop
   offset="0.5455"
   style="stop-color:#9FD4FA"
   id="stop8" />
		<stop
   offset="0.602"
   style="stop-color:#99CFF7"
   id="stop10" />
		<stop
   offset="0.6793"
   style="stop-color:#87C3EE"
   id="stop12" />
		<stop
   offset="0.7687"
   style="stop-color:#6AAEDF"
   id="stop14" />
		<stop
   offset="0.8672"
   style="stop-color:#4290CB"
   id="stop16" />
		<stop
   offset="0.9719"
   style="stop-color:#0F6BB1"
   id="stop18" />
		<stop
   offset="1"
   style="stop-color:#0060A9"
   id="stop20" />
		<a:midPointStop
   offset="0.1091"
   style="stop-color:#FFFFFF" />
		<a:midPointStop
   offset="0.5079"
   style="stop-color:#FFFFFF" />
		<a:midPointStop
   offset="0.5455"
   style="stop-color:#9FD4FA" />
		<a:midPointStop
   offset="0.64"
   style="stop-color:#9FD4FA" />
		<a:midPointStop
   offset="1"
   style="stop-color:#0060A9" />
	</linearGradient>
	<rect
   y="0.125"
   width="200.625"
   height="100"
   id="rect22"
   x="0"
   style="fill:url(#SVGID_1_)" />
</g>

<g
   id="g56">
		<g
   id="g58">
			<g
   id="g60">
				<rect
   style="fill:#0060a9"
   id="rect62"
   height="50.936001"
   width="41.188999"
   y="6"
   x="153.52299" />
			</g>
		</g>
	</g><rect
   style="fill:#ec2227;stroke:#000000;stroke-width:1.07990003"
   id="rect64"
   height="26.091999"
   width="88.592003"
   y="35.479"
   x="62.655998" /><g
   id="g66">
	</g><g
   id="g68">
	</g><g
   id="g70">
		<path
   style="fill:#ffffff"
   id="path72"
   d="M 68.33,55.803 65.984,42.237 h 2.49 L 69.9,52.269 h 0.036 l 1.516,-10.032 h 2.491 l 1.516,10.032 h 0.036 l 1.426,-10.032 h 2.491 L 77.066,55.803 H 74.16 L 72.716,45.961 H 72.68 l -1.444,9.842 H 68.33 z" />
		<path
   style="fill:#ffffff"
   id="path74"
   d="m 80.458,42.237 h 7.201 v 2.242 h -4.602 v 3.192 h 4.332 v 2.242 h -4.332 v 3.648 h 4.783 v 2.242 H 80.458 V 42.237 z" />
		<path
   style="fill:#ffffff"
   id="path76"
   d="M 89.139,55.803 V 42.237 h 4.35 c 2.442,0 3.664,1.146 3.664,3.439 0,1.596 -0.649,2.584 -1.949,2.964 v 0.038 c 0.722,0.102 1.293,0.431 1.715,0.988 0.421,0.558 0.632,1.28 0.632,2.167 0,1.178 -0.289,2.103 -0.867,2.773 -0.686,0.798 -1.739,1.197 -3.158,1.197 h -4.387 z m 2.599,-11.552 v 3.553 h 0.74 c 1.384,0 2.076,-0.595 2.076,-1.786 0,-0.633 -0.151,-1.086 -0.451,-1.358 -0.301,-0.272 -0.776,-0.408 -1.426,-0.408 h -0.939 z m 0,5.453 v 4.085 h 1.011 c 1.396,0 2.093,-0.685 2.093,-2.053 0,-1.355 -0.662,-2.033 -1.985,-2.033 h -1.119 z" />
		<path
   style="fill:#ffffff"
   id="path78"
   d="m 111.608,46.816 h -2.6 c 0,-1.013 -0.114,-1.739 -0.343,-2.176 -0.229,-0.437 -0.632,-0.655 -1.209,-0.655 -0.638,0 -1.071,0.393 -1.3,1.178 -0.216,0.722 -0.324,2.071 -0.324,4.047 0,1.95 0.138,3.268 0.415,3.952 0.229,0.595 0.644,0.893 1.245,0.893 0.529,0 0.92,-0.209 1.173,-0.627 0.301,-0.52 0.451,-1.457 0.451,-2.812 h 2.599 c 0,1.698 -0.259,2.97 -0.775,3.819 -0.65,1.09 -1.757,1.634 -3.321,1.634 -1.793,0 -3.008,-0.658 -3.646,-1.976 -0.493,-1.001 -0.739,-2.691 -0.739,-5.073 0,-2.381 0.246,-4.072 0.739,-5.073 0.638,-1.317 1.853,-1.976 3.646,-1.976 1.637,0 2.768,0.558 3.394,1.672 0.396,0.734 0.595,1.792 0.595,3.173 z" />
		<path
   style="fill:#ffffff"
   id="path80"
   d="m 111.969,55.803 3.411,-13.566 h 3.213 l 3.411,13.566 h -2.708 L 118.7,52.934 h -3.429 l -0.596,2.869 h -2.706 z m 4.999,-11.21 -1.245,6.099 h 2.526 l -1.245,-6.099 h -0.036 z" />
		<path
   style="fill:#ffffff"
   id="path82"
   d="M 122.961,55.803 V 42.237 h 3.861 l 1.842,9.576 h 0.036 l 1.858,-9.576 h 3.845 v 13.566 h -2.383 v -10.83 l -2.317,10.83 h -2.043 l -2.317,-10.83 v 10.83 h -2.382 z" />
	</g><rect
   style="fill:#fcb93b;stroke:#000000;stroke-width:1.13039994"
   id="rect84"
   height="22.865"
   width="151.793"
   y="14.929"
   x="8.6280003" /><g
   id="g86">
		<g
   id="g88">
			<g
   id="g90">
				<rect
   style="fill:#0060a9"
   id="rect92"
   height="66.690002"
   width="53.929001"
   y="6"
   x="140.784" />
			</g>
		</g>
		<path
   style="fill:#ffffff"
   id="path94"
   d="m 175.764,34.206 c 10.901,4.638 15.596,10.194 14.326,17.12 -1.903,10.394 -14.861,17.877 -30.687,17.851 -15.007,-0.028 -24.491,-6.169 -22.905,-14.832 1.164,-6.348 7.584,-11.998 18.297,-16.137 -7.545,-3.362 -11.224,-8.22 -10.229,-13.646 1.564,-8.546 12.823,-14.762 26.526,-14.737 12.4,0.021 20.376,5.467 19.003,12.972 -0.953,5.195 -5.934,9.228 -14.331,11.409 z m -1.973,-0.813 c 6.559,-1.953 10.521,-5.757 11.453,-10.838 1.184,-6.466 -4.964,-11.212 -14.428,-11.23 -7.993,-0.016 -13.968,3.207 -14.879,8.173 -0.995,5.426 4.707,9.942 17.854,13.895 z m -17.229,5.857 c -7.807,2.528 -13.738,8.176 -14.88,14.413 -1.523,8.314 6.128,13.758 19.017,13.78 8.976,0.015 14.935,-4.016 16.226,-11.059 1.037,-5.657 -1.712,-9.359 -10.312,-13.188 -3.176,-1.391 -5.006,-2.087 -10.051,-3.946 z" />
	</g><g
   id="g112">
		<path
   id="path114"
   d="M 141.022,89.657 V 76.521 h 3.082 v 5.48 l 7.282,-5.48 h 4.425 l -8.699,6.188 9.768,6.947 h -4.908 l -7.867,-5.779 v 5.779 h -3.083 z" />
		<path
   id="path116"
   d="m 168.801,78.87 h -8.239 v 8.314 h 8.239 v -2.821 l 3.058,0.634 v 1.554 c 0,1.201 -0.227,2.019 -0.678,2.454 -0.452,0.435 -1.312,0.652 -2.579,0.652 h -7.842 c -1.275,0 -2.138,-0.218 -2.585,-0.652 -0.447,-0.436 -0.671,-1.253 -0.671,-2.454 v -6.923 c 0,-1.193 0.224,-2.009 0.671,-2.448 0.447,-0.438 1.31,-0.658 2.585,-0.658 h 7.842 c 1.268,0 2.127,0.22 2.579,0.658 0.451,0.439 0.678,1.255 0.678,2.448 v 1.243 l -3.058,0.484 V 78.87 z" />
		<path
   id="path118"
   d="m 185.11,78.87 h -8.239 v 8.314 h 8.239 v -2.821 l 3.058,0.634 v 1.554 c 0,1.201 -0.227,2.019 -0.678,2.454 -0.452,0.435 -1.312,0.652 -2.579,0.652 h -7.842 c -1.275,0 -2.138,-0.218 -2.585,-0.652 -0.447,-0.436 -0.671,-1.253 -0.671,-2.454 v -6.923 c 0,-1.193 0.224,-2.009 0.671,-2.448 0.447,-0.438 1.31,-0.658 2.585,-0.658 h 7.842 c 1.268,0 2.127,0.22 2.579,0.658 0.451,0.439 0.678,1.255 0.678,2.448 v 1.243 l -3.058,0.484 V 78.87 z" />
		<path
   id="path120"
   d="M 190.904,89.657 V 76.521 h 3.058 v 13.136 h -3.058 z" />
	</g><g
   id="g122">
	</g><g
   id="g124">
		<path
   style="fill:#ffffff"
   id="path126"
   d="m 8.332,57.384 h 1.276 v 4.283 H 8.332 v -4.283 z" />
		<path
   style="fill:#ffffff"
   id="path128"
   d="m 10.312,58.553 h 1.143 v 0.396 h 0.012 c 0.211,-0.314 0.548,-0.472 1.012,-0.472 0.282,0 0.523,0.086 0.726,0.258 0.201,0.172 0.303,0.438 0.307,0.797 v 2.136 h -1.148 v -1.634 c 0.004,-0.185 -0.018,-0.333 -0.064,-0.446 -0.049,-0.111 -0.163,-0.167 -0.343,-0.167 -0.112,-0.004 -0.219,0.032 -0.321,0.108 -0.049,0.039 -0.091,0.099 -0.125,0.179 -0.033,0.084 -0.049,0.188 -0.049,0.314 v 1.646 h -1.147 v -3.115 z" />
		<path
   style="fill:#ffffff"
   id="path130"
   d="m 16.221,57.384 h 2.182 c 0.29,0 0.535,0.046 0.736,0.138 0.199,0.092 0.357,0.212 0.475,0.36 0.234,0.316 0.349,0.639 0.345,0.967 -0.004,0.512 -0.161,0.894 -0.469,1.146 -0.308,0.252 -0.713,0.378 -1.213,0.378 h -0.78 v 1.295 h -1.276 v -4.284 z m 1.277,1.969 h 0.527 c 0.186,0.004 0.352,-0.019 0.497,-0.067 0.071,-0.031 0.128,-0.08 0.173,-0.145 0.038,-0.061 0.058,-0.143 0.058,-0.247 -0.004,-0.191 -0.069,-0.311 -0.194,-0.355 -0.127,-0.043 -0.278,-0.063 -0.451,-0.059 h -0.609 v 0.873 z" />
		<path
   style="fill:#ffffff"
   id="path132"
   d="m 23.434,60.973 c 0,0.117 0.007,0.236 0.023,0.359 0.015,0.12 0.054,0.232 0.117,0.335 h -1.211 c -0.031,-0.1 -0.045,-0.197 -0.041,-0.293 H 22.31 c -0.128,0.139 -0.277,0.234 -0.444,0.287 -0.176,0.057 -0.361,0.085 -0.556,0.085 -0.298,0 -0.545,-0.076 -0.742,-0.229 -0.209,-0.156 -0.316,-0.394 -0.319,-0.714 0,-0.244 0.064,-0.433 0.193,-0.567 0.123,-0.137 0.276,-0.235 0.46,-0.296 0.193,-0.064 0.388,-0.108 0.583,-0.132 0.195,-0.023 0.369,-0.045 0.521,-0.064 0.045,-0.014 0.086,-0.026 0.126,-0.038 0.037,-0.012 0.071,-0.025 0.103,-0.041 0.064,-0.039 0.097,-0.105 0.097,-0.199 -0.004,-0.106 -0.044,-0.182 -0.121,-0.225 -0.076,-0.041 -0.167,-0.062 -0.27,-0.062 -0.178,0.004 -0.297,0.037 -0.355,0.102 -0.061,0.071 -0.091,0.143 -0.091,0.215 h -1.107 c 0.015,-0.221 0.071,-0.399 0.168,-0.536 0.095,-0.135 0.217,-0.236 0.368,-0.305 0.152,-0.072 0.322,-0.122 0.51,-0.149 0.182,-0.02 0.361,-0.029 0.539,-0.029 0.363,0 0.648,0.033 0.855,0.1 0.205,0.068 0.349,0.161 0.432,0.278 0.087,0.115 0.141,0.245 0.163,0.39 0.008,0.146 0.012,0.296 0.012,0.448 v 1.28 z m -1.101,-0.702 c -0.156,0.068 -0.319,0.118 -0.491,0.149 -0.281,0.035 -0.421,0.147 -0.421,0.338 0,0.076 0.038,0.142 0.114,0.196 0.07,0.061 0.162,0.091 0.276,0.091 0.145,0 0.267,-0.042 0.365,-0.126 0.096,-0.08 0.148,-0.2 0.157,-0.361 v -0.287 z" />
		<path
   style="fill:#ffffff"
   id="path134"
   d="m 24.093,58.553 h 1.103 v 0.498 h 0.012 c 0.092,-0.188 0.207,-0.331 0.343,-0.431 0.13,-0.096 0.298,-0.144 0.505,-0.144 0.115,0 0.228,0.016 0.337,0.047 v 1.049 c -0.055,-0.023 -0.115,-0.043 -0.182,-0.059 -0.066,-0.012 -0.157,-0.018 -0.272,-0.018 -0.462,-0.008 -0.695,0.306 -0.699,0.94 v 1.23 h -1.147 v -3.112 z" />
		<path
   style="fill:#ffffff"
   id="path136"
   d="m 28.138,58.553 h 0.618 v 0.732 h -0.618 v 1.089 c -0.004,0.144 0.02,0.247 0.071,0.312 0.049,0.068 0.144,0.103 0.285,0.103 0.089,0 0.176,-0.006 0.262,-0.018 v 0.896 c -0.24,0.008 -0.485,0.02 -0.737,0.035 -0.125,0 -0.245,-0.01 -0.36,-0.029 C 27.54,61.65 27.43,61.61 27.327,61.554 27.227,61.49 27.148,61.396 27.089,61.274 27.023,61.149 26.99,60.984 26.99,60.777 v -1.491 h -0.514 v -0.732 h 0.514 v -0.946 h 1.147 v 0.945 z" />
		<path
   style="fill:#ffffff"
   id="path138"
   d="m 29.197,58.553 h 1.143 v 0.396 h 0.012 c 0.211,-0.314 0.548,-0.472 1.012,-0.472 0.282,0 0.523,0.086 0.726,0.258 0.201,0.172 0.303,0.438 0.307,0.797 v 2.136 h -1.148 v -1.634 c 0.004,-0.185 -0.018,-0.333 -0.064,-0.446 -0.049,-0.111 -0.163,-0.167 -0.343,-0.167 -0.112,-0.004 -0.219,0.032 -0.321,0.108 -0.049,0.039 -0.091,0.099 -0.125,0.179 -0.033,0.084 -0.049,0.188 -0.049,0.314 v 1.646 H 29.2 v -3.115 z" />
		<path
   style="fill:#ffffff"
   id="path140"
   d="m 33.98,60.378 c 0.02,0.176 0.079,0.319 0.179,0.431 0.096,0.117 0.238,0.176 0.425,0.176 0.102,0 0.198,-0.021 0.291,-0.062 0.092,-0.035 0.161,-0.089 0.208,-0.161 h 1.111 c -0.125,0.336 -0.332,0.584 -0.617,0.744 -0.284,0.16 -0.607,0.24 -0.968,0.24 -0.502,-0.004 -0.911,-0.146 -1.226,-0.428 -0.328,-0.279 -0.495,-0.679 -0.499,-1.198 0.004,-0.469 0.154,-0.859 0.449,-1.172 0.293,-0.307 0.686,-0.464 1.176,-0.472 1.178,0.016 1.761,0.649 1.75,1.901 H 33.98 z m 1.179,-0.615 c -0.004,-0.149 -0.054,-0.274 -0.148,-0.374 -0.097,-0.101 -0.228,-0.15 -0.391,-0.15 -0.365,0.004 -0.577,0.179 -0.633,0.524 h 1.172 z" />
		<path
   style="fill:#ffffff"
   id="path142"
   d="m 36.864,58.553 h 1.103 v 0.498 h 0.012 c 0.092,-0.188 0.207,-0.331 0.343,-0.431 0.13,-0.096 0.298,-0.144 0.505,-0.144 0.115,0 0.228,0.016 0.337,0.047 v 1.049 c -0.055,-0.023 -0.115,-0.043 -0.182,-0.059 -0.066,-0.012 -0.157,-0.018 -0.272,-0.018 -0.462,-0.008 -0.695,0.306 -0.699,0.94 v 1.23 h -1.147 v -3.112 z" />
		<path
   style="fill:#ffffff"
   id="path144"
   d="m 41.33,59.461 c -0.008,-0.105 -0.052,-0.185 -0.134,-0.236 -0.082,-0.062 -0.176,-0.092 -0.282,-0.092 -0.094,0 -0.18,0.014 -0.257,0.041 -0.086,0.033 -0.129,0.1 -0.129,0.2 0,0.039 0.016,0.07 0.048,0.094 0.03,0.029 0.061,0.052 0.093,0.067 0.058,0.021 0.125,0.036 0.203,0.048 0.08,0.018 0.166,0.034 0.257,0.05 0.196,0.031 0.397,0.079 0.604,0.144 0.198,0.058 0.367,0.153 0.504,0.289 0.07,0.064 0.125,0.145 0.164,0.241 0.034,0.096 0.051,0.211 0.051,0.344 0,0.215 -0.045,0.39 -0.136,0.526 -0.09,0.144 -0.211,0.258 -0.361,0.342 -0.32,0.155 -0.674,0.231 -1.063,0.228 -0.379,0 -0.724,-0.084 -1.032,-0.251 -0.306,-0.168 -0.474,-0.449 -0.503,-0.845 h 1.131 c 0.008,0.106 0.056,0.198 0.144,0.273 0.064,0.061 0.17,0.09 0.318,0.09 0.084,0 0.172,-0.019 0.263,-0.056 0.088,-0.035 0.133,-0.097 0.138,-0.185 0.004,-0.088 -0.034,-0.154 -0.114,-0.199 -0.088,-0.043 -0.268,-0.087 -0.539,-0.132 -0.447,-0.076 -0.772,-0.194 -0.973,-0.354 -0.199,-0.154 -0.299,-0.362 -0.299,-0.624 0,-0.195 0.047,-0.358 0.142,-0.489 0.091,-0.133 0.209,-0.233 0.356,-0.302 0.147,-0.076 0.305,-0.128 0.475,-0.155 0.162,-0.027 0.321,-0.041 0.478,-0.041 0.353,-0.006 0.683,0.056 0.99,0.186 0.146,0.068 0.265,0.168 0.356,0.299 0.091,0.13 0.141,0.296 0.15,0.5 H 41.33 z" />
		<path
   style="fill:#ffffff"
   id="path146"
   d="m 42.969,57.384 h 1.148 v 1.506 h 0.011 c 0.104,-0.125 0.234,-0.226 0.392,-0.302 0.153,-0.074 0.359,-0.111 0.616,-0.111 0.282,0 0.523,0.086 0.726,0.258 0.201,0.172 0.303,0.438 0.307,0.797 v 2.136 H 45.02 v -1.63 c 0.004,-0.184 -0.018,-0.332 -0.064,-0.444 -0.049,-0.111 -0.163,-0.167 -0.343,-0.167 -0.112,-0.004 -0.219,0.032 -0.321,0.108 -0.049,0.039 -0.091,0.099 -0.125,0.178 -0.033,0.084 -0.049,0.188 -0.049,0.313 v 1.642 h -1.147 v -4.284 z" />
		<path
   style="fill:#ffffff"
   id="path148"
   d="M 48.028,58.216 H 46.88 v -0.832 h 1.147 v 0.832 z m -1.148,0.337 h 1.147 v 3.114 H 46.88 v -3.114 z" />
		<path
   style="fill:#ffffff"
   id="path150"
   d="m 48.675,58.553 h 1.11 v 0.343 h 0.011 c 0.038,-0.057 0.081,-0.108 0.128,-0.155 0.045,-0.053 0.099,-0.097 0.162,-0.132 0.125,-0.084 0.322,-0.128 0.593,-0.132 0.218,0.004 0.408,0.052 0.571,0.144 0.155,0.096 0.285,0.224 0.389,0.384 0.206,0.336 0.309,0.71 0.309,1.122 0,0.184 -0.018,0.369 -0.054,0.557 -0.038,0.188 -0.106,0.361 -0.205,0.521 -0.189,0.348 -0.532,0.528 -1.027,0.542 -0.362,-0.004 -0.637,-0.144 -0.826,-0.42 h -0.012 v 1.349 h -1.148 v -4.123 z m 1.109,1.562 c 0,0.089 0.008,0.179 0.024,0.271 0.016,0.092 0.043,0.175 0.082,0.247 0.077,0.164 0.222,0.248 0.435,0.252 0.112,0 0.205,-0.026 0.28,-0.079 0.071,-0.043 0.125,-0.101 0.161,-0.173 0.067,-0.157 0.101,-0.329 0.101,-0.518 0,-0.197 -0.034,-0.376 -0.101,-0.537 -0.037,-0.072 -0.09,-0.13 -0.161,-0.173 -0.075,-0.045 -0.168,-0.067 -0.28,-0.067 -0.213,0.004 -0.358,0.084 -0.435,0.24 -0.039,0.072 -0.066,0.155 -0.082,0.247 -0.016,0.096 -0.024,0.193 -0.024,0.29 z" />
		<path
   style="fill:#ffffff"
   id="path152"
   d="M 12.438,68.667 H 11.155 L 10.692,66.054 H 10.68 l -0.451,2.613 H 8.94 L 7.777,64.384 h 1.295 l 0.521,2.648 h 0.012 l 0.516,-2.648 h 1.166 l 0.504,2.684 h 0.012 l 0.533,-2.684 h 1.301 l -1.199,4.283 z" />
		<path
   style="fill:#ffffff"
   id="path154"
   d="m 15.262,65.216 h -1.147 v -0.832 h 1.147 v 0.832 z m -1.147,0.337 h 1.147 v 3.114 h -1.147 v -3.114 z" />
		<path
   style="fill:#ffffff"
   id="path156"
   d="m 17.363,65.553 h 0.618 v 0.732 h -0.618 v 1.089 c -0.004,0.144 0.02,0.247 0.071,0.312 0.049,0.068 0.144,0.103 0.285,0.103 0.089,0 0.176,-0.006 0.262,-0.018 v 0.896 c -0.24,0.008 -0.485,0.02 -0.737,0.035 -0.125,0 -0.245,-0.01 -0.36,-0.029 -0.119,-0.023 -0.229,-0.063 -0.332,-0.119 -0.1,-0.064 -0.179,-0.158 -0.238,-0.28 -0.066,-0.125 -0.099,-0.29 -0.099,-0.497 v -1.491 h -0.514 v -0.732 h 0.514 v -0.946 h 1.147 v 0.945 z" />
		<path
   style="fill:#ffffff"
   id="path158"
   d="m 18.421,64.384 h 1.148 v 1.506 h 0.011 c 0.104,-0.125 0.234,-0.226 0.392,-0.302 0.153,-0.074 0.359,-0.111 0.616,-0.111 0.282,0 0.523,0.086 0.726,0.258 0.201,0.172 0.303,0.438 0.307,0.797 v 2.136 h -1.148 v -1.63 c 0.004,-0.184 -0.018,-0.332 -0.064,-0.444 -0.049,-0.111 -0.163,-0.167 -0.343,-0.167 -0.112,-0.004 -0.219,0.032 -0.321,0.108 -0.049,0.039 -0.091,0.099 -0.125,0.178 -0.033,0.084 -0.049,0.188 -0.049,0.313 v 1.642 h -1.147 v -4.284 z" />
		<path
   style="fill:#ffffff"
   id="path160"
   d="m 22.362,65.553 h 1.206 v 1.184 h -1.206 v -1.184 z m 0,1.93 h 1.206 v 1.184 h -1.206 v -1.184 z" />
	</g>
<text
   xml:space="preserve"
   style="font-size:21.62899399px;font-style:normal;font-variant:normal;font-weight:normal;font-stretch:normal;text-align:start;line-height:125%;writing-mode:lr-tb;text-anchor:start;fill:#000000;fill-opacity:1;stroke:none;font-family:DejaVu Sans;-inkscape-font-specification:DejaVu Sans"
   x="13.027147"
   y="30.010883"
   id="text3034"
   sodipodi:linespacing="125%"
   transform="scale(0.85283192,1.172564)"><tspan
     sodipodi:role="line"
     id="tspan4137"
     x="13.027147"
     y="30.010883">FORT DODGE</tspan></text>
<g
   inkscape:groupmode="layer"
   id="layer1"
   inkscape:label="CIPCO"
   style="display:none"><g
     transform="translate(13.850239,0.81831715)"
     id="Layer_2"><g
       id="g25"><path
         style="fill:#005696;stroke:#ffffff;stroke-width:3.0309999"
         d="m 53.424,86.225 c 0.778,1.964 2.721,2.494 5.524,2.494 h 6.626 c 4.125,0 4.939,-1.776 4.939,-4.033 v -1.26 h -4.108 c 0,1.666 -0.554,1.852 -2.405,1.852 h -4.385 c -0.736,0 -1.651,-0.356 -1.651,-0.356 l -4.54,1.303 0,0 z"
         id="path27" /><path
         style="fill:#005696;stroke:#ffffff;stroke-width:3.0309999"
         d="m 8.142,84.103 c 0,3.922 2.202,4.848 5.903,4.848 h 6.624 c 4.127,0 4.941,-1.776 4.941,-4.034 v -1.259 h -4.108 c 0,1.666 -0.555,1.852 -2.406,1.852 h -4.385 c -1.943,0 -2.351,-0.74 -2.351,-2.684 v -1.443 c 0,-1.665 0.408,-2.683 2.572,-2.683 h 4.479 c 1.221,0 1.924,0.277 1.924,1.239 v 0.37 h 4.108 C 25.48,76.516 24.72,75.257 18.874,75.257 h -4.83 c -3.701,0 -5.903,0.926 -5.903,4.849 v 3.997 l 10e-4,0 z"
         id="path29" /><polygon
         style="fill:#005696;stroke:#ffffff;stroke-width:3.0309999;stroke-linecap:square;stroke-miterlimit:3.86369991"
         stroke-miterlimit="3.8637"
         points="32.578,89.011 32.578,75.613 28.47,75.613 28.47,89.011 28.47,89.011 "
         id="polygon31" /><path
         style="fill:#005696;stroke:#ffffff;stroke-width:3.0309999"
         d="m 73.564,84.311 c 0,3.923 2.202,4.848 5.902,4.848 h 6.588 c 3.701,0 5.902,-0.925 5.902,-4.848 v -3.997 c 0,-3.923 -2.201,-4.848 -5.902,-4.848 h -6.588 c -3.7,0 -5.902,0.925 -5.902,4.848 v 3.997 l 0,0 z m 4.219,-2.721 c 0,-1.665 0.407,-2.683 2.571,-2.683 h 4.812 c 2.165,0 2.573,1.018 2.573,2.683 v 1.444 c 0,1.943 -0.409,2.684 -2.352,2.684 h -5.254 c -1.943,0 -2.351,-0.74 -2.351,-2.684 V 81.59 l 0.001,0 z"
         id="path33" /><path
         style="fill:#d11242;stroke:#ffffff;stroke-width:3.0309999;stroke-linecap:round;stroke-miterlimit:3.86369991"
         stroke-miterlimit="3.8637"
         d="m 35.224,79.528 c 4.357,-1.27 8.964,-2.527 13.724,-3.735 26.519,-6.729 47.745,-9.383 47.41,-5.926 -0.333,3.458 -22.101,11.716 -48.621,18.446 -14.034,3.562 -26.587,5.981 -35.229,6.954 7.354,-1.332 16.145,-3.264 25.601,-5.663 26.432,-6.708 48.098,-14.626 48.394,-17.687 0.295,-3.06 -20.89,-0.103 -47.322,6.604 -1.331,0.34 -2.652,0.665 -3.957,1.007 l 0,0 z"
         id="path35" /><path
         style="fill:#005a9b;stroke:#ffffff;stroke-width:3.0309999;stroke-linecap:square;stroke-miterlimit:3.86369991"
         stroke-miterlimit="3.8637"
         d="m 35.637,89.011 h 4.108 v -3.368 h 8.16 c 2.905,0 3.775,-2.294 3.775,-4.292 v -1.148 c 0,-2.627 -0.944,-4.589 -4.848,-4.589 H 35.637 v 13.397 l 0,0 z m 4.108,-10.067 h 6.032 c 1.24,0 1.684,0.519 1.684,1.425 v 0.519 c 0,0.796 -0.37,1.425 -1.333,1.425 h -6.383 v -3.369 l 0,0 z"
         id="path37" /><path
         style="fill:#005696;stroke:#ffffff;stroke-width:3.0309999"
         d="m 53.458,85.165 c 1.437,-0.42 2.85,-0.762 4.224,-1.18 -0.042,-0.296 -0.057,-0.634 -0.057,-1.021 v -1.442 c 0,-1.666 0.406,-2.685 2.572,-2.685 h 4.478 c 1.222,0 1.924,0.278 1.924,1.24 v 0.37 h 4.107 c 0.037,-3.793 -0.721,-5.052 -6.568,-5.052 h -4.83 c -3.701,0 -5.903,0.926 -5.903,4.849 v 3.997 c 10e-4,0.338 0.005,0.63 0.053,0.924 l 0,0 z"
         id="path39" /><path
         style="fill:#005696"
         d="m 8.002,84.032 c 0,3.924 2.202,4.849 5.903,4.849 h 6.624 c 4.127,0 4.941,-1.776 4.941,-4.034 v -1.258 h -4.108 c 0,1.666 -0.555,1.85 -2.406,1.85 h -4.385 c -1.943,0 -2.35,-0.739 -2.35,-2.683 v -1.443 c 0,-1.665 0.407,-2.684 2.571,-2.684 h 4.479 c 1.221,0 1.925,0.278 1.925,1.239 v 0.371 h 4.108 c 0.037,-3.793 -0.722,-5.052 -6.569,-5.052 h -4.83 c -3.701,0 -5.903,0.926 -5.903,4.849 v 3.996 l 0,0 z"
         id="path41" /><polygon
         style="fill:#005696"
         points="32.578,88.872 32.578,75.476 28.47,75.476 28.47,88.872 28.47,88.872 "
         id="polygon43" /><path
         style="fill:#005a9b"
         d="m 35.498,88.872 h 4.108 v -3.368 h 8.161 c 2.905,0 3.775,-2.295 3.775,-4.293 v -1.147 c 0,-2.627 -0.944,-4.588 -4.849,-4.588 H 35.498 v 13.396 l 0,0 z m 4.108,-10.066 h 6.032 c 1.239,0 1.684,0.518 1.684,1.425 v 0.518 c 0,0.796 -0.37,1.425 -1.333,1.425 h -6.383 v -3.368 l 0,0 z"
         id="path45" /><path
         style="fill:#005696"
         d="m 53.528,85.235 c 1.438,-0.421 2.85,-0.763 4.224,-1.182 -0.042,-0.294 -0.057,-0.634 -0.057,-1.02 V 81.59 c 0,-1.665 0.407,-2.683 2.572,-2.683 h 4.479 c 1.221,0 1.924,0.278 1.924,1.24 v 0.37 h 4.108 c 0.037,-3.794 -0.721,-5.052 -6.569,-5.052 H 59.38 c -3.701,0 -5.904,0.925 -5.904,4.848 v 3.997 c -10e-4,0.339 0.003,0.63 0.052,0.925 l 0,0 z"
         id="path47" /><path
         style="fill:#005696"
         d="m 53.632,86.225 c 0.778,1.964 2.722,2.494 5.525,2.494 h 6.625 c 4.126,0 4.94,-1.776 4.94,-4.033 v -1.26 h -4.107 c 0,1.666 -0.555,1.852 -2.405,1.852 h -4.386 c -0.736,0 -1.651,-0.356 -1.651,-0.356 l -4.541,1.303 0,0 z"
         id="path49" /><path
         style="fill:#005696"
         d="m 73.52,84.287 c 0,3.923 2.202,4.849 5.903,4.849 h 6.587 c 3.701,0 5.903,-0.926 5.903,-4.849 v -3.996 c 0,-3.924 -2.202,-4.849 -5.903,-4.849 h -6.587 c -3.701,0 -5.903,0.925 -5.903,4.849 v 3.996 l 0,0 z m 4.218,-2.72 c 0,-1.665 0.407,-2.684 2.573,-2.684 h 4.812 c 2.164,0 2.571,1.019 2.571,2.684 v 1.442 c 0,1.943 -0.407,2.684 -2.35,2.684 h -5.255 c -1.943,0 -2.351,-0.74 -2.351,-2.684 v -1.442 l 0,0 z"
         id="path51" /><path
         style="fill:#d11242"
         d="m 35.003,79.458 c 4.357,-1.27 8.964,-2.526 13.724,-3.735 26.52,-6.729 47.745,-9.382 47.411,-5.925 -0.335,3.458 -22.103,11.717 -48.622,18.446 -14.034,3.562 -26.588,5.981 -35.229,6.954 7.354,-1.332 16.144,-3.264 25.602,-5.664 26.431,-6.707 48.097,-14.625 48.393,-17.685 0.296,-3.061 -20.89,-0.104 -47.322,6.604 -1.331,0.338 -2.652,0.662 -3.957,1.005 l 0,0 z"
         id="path53" /></g></g></g><g
   inkscape:groupmode="layer"
   id="layer2"
   inkscape:label="Midland"
   style="display:none"><image
     sodipodi:absref="/home/akrherz/projects/nwnwebsite/imgsrc/inkscape_pasted_image_20101231_081124.png"
     xlink:href="inkscape_pasted_image_20101231_081124.png"
     width="105.55932"
     height="28.898306"
     id="image3133"
     x="29.84746"
     y="66.906784" /></g><g
   inkscape:groupmode="layer"
   id="layer3"
   inkscape:label="Prairie Energy"
   style="display:none"><image
     sodipodi:absref="/home/akrherz/projects/nwnwebsite/imgsrc/inkscape_pasted_image_20101231_081437.png"
     xlink:href="inkscape_pasted_image_20101231_081437.png"
     width="99.902931"
     height="31.853109"
     id="image3148"
     x="34.18644"
     y="65.028244" /></g><g
   inkscape:groupmode="layer"
   id="layer4"
   inkscape:label="Pella Coop"
   style="display:none"><image
     sodipodi:absref="/home/akrherz/projects/nwnwebsite/imgsrc/inkscape_pasted_image_20101231_081613.png"
     xlink:href="inkscape_pasted_image_20101231_081613.png"
     width="109.9996"
     height="34.525425"
     id="image3163"
     x="25.991526"
     y="63.059326" /></g><g
   inkscape:groupmode="layer"
   id="layer5"
   inkscape:label="Humboldt "
   style="display:none"><image
     sodipodi:absref="/home/akrherz/projects/nwnwebsite/imgsrc/inkscape_pasted_image_20101231_081832.png"
     xlink:href="inkscape_pasted_image_20101231_081832.png"
     width="101.14609"
     height="32.677967"
     id="image3180"
     x="33.389832"
     y="64.8983" /></g><g
   inkscape:groupmode="layer"
   id="layer6"
   inkscape:label="Clarke"
   style="display:none"><image
     sodipodi:absref="/home/akrherz/projects/nwnwebsite/imgsrc/inkscape_pasted_image_20101231_082048.png"
     xlink:href="inkscape_pasted_image_20101231_082048.png"
     width="104.34808"
     height="35.067795"
     id="image3239"
     x="29.211243"
     y="64.059326" /></g><g
   inkscape:groupmode="layer"
   id="layer7"
   inkscape:label="Calhoun"
   style="display:none"><image
     sodipodi:absref="/home/akrherz/projects/nwnwebsite/imgsrc/inkscape_pasted_image_20101231_082252.png"
     xlink:href="inkscape_pasted_image_20101231_082252.png"
     width="98.793533"
     height="32.683575"
     id="image3256"
     x="34.635593"
     y="64.502861" /></g><g
   inkscape:groupmode="layer"
   id="layer8"
   inkscape:label="Consumers"
   style="display:none"><image
     sodipodi:absref="/home/akrherz/projects/nwnwebsite/imgsrc/inkscape_pasted_image_20101231_082413.png"
     xlink:href="inkscape_pasted_image_20101231_082413.png"
     width="68.214943"
     height="32.983051"
     id="image3273"
     x="52.85593"
     y="63.59322" /></g><g
   inkscape:groupmode="layer"
   id="layer9"
   inkscape:label="Farmers"
   style="display:none"><image
     sodipodi:absref="/home/akrherz/projects/nwnwebsite/imgsrc/inkscape_pasted_image_20101231_082613.png"
     xlink:href="inkscape_pasted_image_20101231_082613.png"
     width="98.213707"
     height="31.59322"
     id="image3292"
     x="34.90678"
     y="65.067795" /></g><g
   inkscape:groupmode="layer"
   id="layer10"
   inkscape:label="Guthrie"
   style="display:none"><image
     sodipodi:absref="/home/akrherz/projects/nwnwebsite/imgsrc/inkscape_pasted_image_20101231_082725.png"
     xlink:href="inkscape_pasted_image_20101231_082725.png"
     width="97.29776"
     height="31.711866"
     id="image3309"
     x="32.09322"
     y="65.949158" /></g><g
   inkscape:groupmode="layer"
   id="layer11"
   inkscape:label="Touchstone"
   sodipodi:insensitive="true"
   style="display:inline"><g
     id="g3459"
     transform="matrix(0.30538272,0,0,0.30538272,-9.416348,61.642808)"><path
       d="m 186.329,48.044 c -3.337,-0.071 -11.862,-3.868 -14.877,-2.329 l -2.642,4.41 c 0.043,2.459 0.565,2.705 0.704,6.152 -2.897,7.778 3.342,9.669 -1.88,17.061 1.051,0.933 0.162,6.519 -0.118,7.703 -0.608,0.142 -1.473,2.471 -2.225,1.94 -1.752,-5.812 -1.534,-14.458 -2.729,-22.324 l -1.361,-0.39 c -0.417,3.327 -1.232,7.094 -1.298,9.223 2.896,4.638 -1.068,9.911 -2.398,11.338 l -0.68,-0.195 c -1.482,-6.24 -0.493,-12.973 -2.05,-19.172 -0.691,-3.052 1.148,-6.91 1.109,-10.049 -0.024,-1.937 -0.894,-3.362 -1.755,-5.152 0.05,-4.864 -3.22,-2.55 -5.364,-1.208 -3.429,1.293 -4.545,-1.968 -9.203,2.72 -0.222,-0.443 -3.015,-1.855 -3.736,-1.746 3.514,-2.091 7.86,-6.073 11.467,-6.43 4.062,-3.514 9.561,-3.393 14.383,-3.845 0.274,-2.012 0.791,2.319 -1.478,-1.476 -0.106,-0.178 -1.526,0.434 -1.434,0.096 -0.295,-2.435 0.267,-3.753 -0.428,-5.278 1.155,-3.641 4.342,-1.447 5.106,-3.376 l 1.919,0.533 c 1.327,2.038 1.069,5.788 -2.166,8.015 l -0.84,1.681 c 3.319,1.583 5.251,-1.432 9.762,2.038 2.604,1.125 4.041,1.764 5.605,4.298 4.754,-1.743 8.372,3.303 11.015,3.443 l -2.408,2.319 z"
       id="path3461"
       style="fill:#005a9c" /><g
       id="g3463"><path
         d="m 222.702,60.545 c -0.512,0.07 -0.41,1.17 -0.973,0.5 l -0.003,2.784 c -2.548,-0.71 -7.062,3.058 -7.839,-1.469 0.569,-2.647 2.455,-4.085 4.893,-5.453 1.657,1.341 4.408,1.24 3.922,3.638 z"
         id="path3465"
         style="fill:#f8991d" /><path
         d="m 184.009,75.085 c 6.727,-0.509 3.514,-3.444 11.055,-6.438 2.9,0.201 6.039,-6.252 6.039,-6.252 0,0 -0.463,-1.559 -2.064,-3.149 -4.25,-3.241 -1.904,-1.039 -4.466,-5.044 -0.589,-2.639 -6.062,-5.333 -6.777,-6.167 4.65,-4.048 4.755,2.268 8.355,1.7 3.435,3.363 8.636,4.805 10.714,6.542 6.929,2.989 3.941,5.915 8.648,5.934 -0.121,2.861 -1.586,2.924 0.3,5.417 2.481,1.522 1.945,5.376 2.206,9.281 1.223,3.161 4.574,15.377 2.066,15.229 -1.772,-1.415 -4.169,-6.321 -3.833,-9.444 -8.447,-3.878 -0.874,-14.346 -11.864,-5.471 l -1.58,2.62 c -3.619,5.006 -6.859,6.213 -11.662,8.287 -1.805,-0.293 -2.684,1.666 -4.024,2.499 -3.716,1.461 -3.836,-0.512 -7.185,1.745 -0.926,-4.979 4.676,-6.254 7.425,-8.551 6.462,-1.118 3.991,-2.926 7.245,-4.086 3.979,-5.079 0.283,-3.338 -0.312,-2.734 l -8.162,3.308 c -6.658,2.004 -9.455,4.326 -9.516,4.373 l -2.562,0.055 c 3.904,-10.01 6.413,-5.035 9.954,-9.654 z"
         id="path3467"
         style="fill:#f8991d" /></g><g
       id="g3469"><path
         d="m 134.742,47.471 c -0.319,-0.771 -3.053,1.262 -5.207,3.768 -0.338,2.679 -4.822,6.239 -6.565,7.612 -1.15,6.311 8.422,7.604 9.131,8.834 l 9.431,5.811 c 6.351,7.352 3.064,3.435 8.655,11.236 0.345,1.125 -0.219,1.986 -1.348,2.212 l -2.154,0.087 c 0.181,-1.445 -2.333,-2.841 -3.735,-3.443 l -0.029,-0.718 c -1.36,-0.184 0.626,0.75 -6.107,-1.966 1.354,-3.859 -6.264,-4.601 -7.106,-4.687 2.172,6.263 9.099,11.042 14.214,15.987 l -0.996,2.047 c -10.575,-1.304 -9.604,-5.782 -17.143,-7.992 -1.083,-1.574 -3.005,-5.086 -4.91,-6.267 1.16,-5.067 -6.192,-3.085 -6.61,-4.507 -3.648,-3.815 -2.891,5.631 -5.072,6.121 -2.094,3.021 -2.84,5.028 -3.105,8.813 -0.908,1.235 -1.17,2.977 -3.525,2.534 0.419,-5.012 -0.708,-5.988 0.725,-9.745 l -0.112,-1.537 c -0.347,-3.588 0.937,-3.958 0.555,-4.09 2.325,-2.024 2.288,-5.751 1.741,-7.406 1.866,-1.274 5.165,-6.543 3.477,-8.527 6.387,0.154 7.709,-8.748 13.997,-10.322 4.011,-3.712 6.73,-6.756 11.573,-6.674 l 0.225,2.819 z"
         id="path3471"
         style="fill:#d73648" /><path
         d="m 107.007,62.321 c -1.224,-0.897 -3.376,0.447 -4.66,-1.077 -0.646,-1.036 -1.387,-1.958 -1.221,-3.556 0.997,-1.066 0.886,-3.921 4.639,-3.639 l 1.124,0.719 c 1.448,-1.845 1.036,1.831 2.724,1.607 1.581,2.003 1.65,7.885 -2.606,5.946 z"
         id="path3473"
         style="fill:#d73648" /></g><path
       d="m 179.442,100.425 c 9.43,0.242 18.107,2.195 26.041,5.537 l -0.018,1.292 c -1.462,0.732 -4.111,-0.059 -5.795,-0.729 -19.304,-3.073 -39.936,-5.84 -59.492,-0.2 -10.885,-1.454 -15.953,6.838 -18.19,3.616 0.009,-0.646 0.265,-1.611 -0.698,-1.947 l -2.902,-0.042 c 2.611,-5.021 9.359,-2.42 15.335,-6.886 0.707,1.302 2.058,-0.186 2.911,-0.604 14.419,-1.948 26.919,-4.15 42.808,-0.037 z"
       id="path3475"
       style="fill:#008457" /></g><path
     d="m 58.634367,64.444138 c 0,-0.0745 0.04245,-0.47853 -0.106273,-0.48922 h -1.733047 c -0.659016,0 -0.680393,0.15941 -0.871562,0.74422 -0.03176,0.10627 -0.04245,0.24461 -0.180787,0.24461 -0.06383,0 -0.106273,-0.0745 -0.106273,-0.12765 l 0.116962,-1.03128 c 0.01069,-0.12734 0,-0.4144 0.191475,-0.4144 0.829114,0 1.647845,0.0425 3.019318,0.0425 1.924217,0 2.902358,-0.0425 3.114904,-0.0425 0.244612,0 0.297748,0.0638 0.308437,0.30813 l 0.05314,0.85049 c 0.01069,0.10627 0.02138,0.23392 -0.116961,0.23392 -0.393333,0 0.180786,-0.80804 -0.903628,-0.80804 h -1.520195 c -0.478229,0 -0.425398,-0.0425 -0.425398,0.52098 v 5.42177 c 0,0.89294 0.861179,0.54205 0.861179,0.87156 0,0.0318 0.01069,0.12765 -0.09558,0.12765 -0.255299,0 -0.553048,-0.0425 -0.861179,-0.0425 -1.190687,0 -1.392545,0.0425 -1.45637,0.0425 -0.09558,0 -0.12765,-0.0318 -0.12765,-0.13834 0,-0.25499 0.839803,-0.14872 0.839803,-0.78666 v -5.52774 z"
     id="path3477" /><path
     d="m 61.133314,68.717668 c 0,-1.30765 1.031277,-2.42413 2.370686,-2.42413 0.808043,0 2.306861,0.39334 2.306861,2.37099 0,1.30765 -0.988524,2.30686 -2.296478,2.30686 -1.381551,3.1e-4 -2.381069,-0.81842 -2.381069,-2.25372 z m 3.933635,0.10627 c 0,-1.09479 -0.457158,-2.29647 -1.722359,-2.29647 -1.041966,0 -1.467058,0.91431 -1.467058,1.81794 0,1.04196 0.489223,2.40275 1.733047,2.40275 0.892939,3.1e-4 1.45637,-0.60588 1.45637,-1.92422 z"
     id="path3479" /><path
     d="m 69.596691,67.069828 c 0,-0.40403 -0.563432,-0.14873 -0.563432,-0.40403 0,-0.0852 0.138339,-0.0956 0.19117,-0.0956 0.308437,0 0.457158,-0.0318 0.574119,-0.0638 0.116962,-0.0211 0.212547,-0.0531 0.382645,-0.0531 0.04245,0 0.19117,0.0531 0.19117,0.25499 v 3.67834 c 0,0.27637 0.669704,0.13834 0.669704,0.37195 0,0.0852 -0.223235,0.0956 -0.393333,0.0956 -0.297748,0 -0.44647,0.0318 -0.57412,0.0531 -0.116961,0.0318 -0.201858,0.0638 -0.361573,0.0638 -0.0849,0 -0.09558,-0.11696 -0.09558,-0.15941 v -0.58481 h -0.02107 c -0.329508,0.49961 -0.850491,0.74422 -1.413922,0.74422 -0.850491,0 -1.55226,-0.52098 -1.55226,-1.42461 v -2.47696 c 0,-0.40402 -0.563431,-0.14872 -0.563431,-0.40402 0,-0.0852 0.138338,-0.0956 0.191475,-0.0956 0.308131,0 0.457158,-0.0318 0.574119,-0.0638 0.116962,-0.0211 0.212547,-0.0531 0.382645,-0.0531 0.04245,0 0.191475,0.0531 0.191475,0.255 v 2.68981 c -0.01069,1.12686 0.892939,1.20137 1.031277,1.20137 0.605879,0 1.137551,-0.44647 1.158622,-0.7549 v -2.7744 z"
     id="path3481" /><path
     d="m 71.22377,68.717668 c 0,-1.32903 1.052654,-2.42413 2.392062,-2.42413 0.531672,0 1.254513,0.14903 1.286272,0.39334 0.02138,0.23392 0.01069,0.48922 0.01069,0.62725 0,0.14872 -0.03176,0.22324 -0.0849,0.22324 -0.106273,0 -0.223234,-0.20217 -0.254994,-0.24462 -0.361573,-0.48891 -0.82942,-0.64863 -1.318337,-0.64863 -0.903628,0 -1.254512,0.93539 -1.254512,1.70098 0,1.14824 0.680392,2.09432 1.881768,2.09432 0.829419,0 1.297266,-0.61657 1.456675,-0.61657 0.03176,0 0.0852,0.0318 0.0852,0.0638 0,0.17009 -0.637944,1.08441 -2.094315,1.08441 -1.223057,6.1e-4 -2.105613,-1.07312 -2.105613,-2.25342 z"
     id="path3483" /><path
     d="m 77.027568,67.048748 c 0.404022,-0.38264 0.925004,-0.7549 1.530884,-0.7549 1.360785,0 1.775189,1.18 1.775189,2.09431 v 1.77519 c 0,0.55305 0.850491,0.32982 0.850491,0.5955 0,0.11696 -0.09558,0.13834 -0.212546,0.13834 -0.19117,0 -0.489223,-0.0425 -0.892939,-0.0425 -0.414404,0 -0.754906,0.0425 -0.871562,0.0425 -0.106274,0 -0.170099,-0.0318 -0.170099,-0.11696 0,-0.15941 0.520983,-0.15941 0.520983,-0.54236 v -1.9456 c 0,-1.31834 -0.914315,-1.56264 -1.286272,-1.56264 -0.478534,0 -1.243823,0.4144 -1.243823,0.95676 v 2.24334 c 0,0.91432 0.935387,0.61657 0.935387,0.81874 0,0.12734 -0.05314,0.14872 -0.180787,0.14872 -0.223235,0 -0.754906,-0.0425 -1.084414,-0.0425 -0.329813,0 -0.797354,0.0425 -0.967452,0.0425 -0.07451,0 -0.106273,-0.0531 -0.106273,-0.10628 0,-0.21254 0.627256,-0.0956 0.627256,-0.61656 v -6.00658 c 0,-0.63794 -0.818731,-0.36157 -0.818731,-0.5848 0,-0.0638 0.03176,-0.10628 0.0852,-0.11697 0.775978,-0.14872 1.137551,-0.53136 1.381857,-0.53136 0.06383,0 0.12765,0.0635 0.12765,0.1701 v 3.94401 z"
     id="path3485" /><path
     d="m 81.651979,67.569738 c 0,-0.85049 0.659321,-1.27589 1.435298,-1.27589 0.180787,0 0.914316,0.0852 1.041966,0.24461 0.06383,0.0852 0.05314,0.44647 0.05314,0.52098 0,0.28706 0.04245,0.41441 -0.116962,0.41441 -0.106273,0 -0.201858,-0.9247 -1.16931,-0.9247 -0.41471,0 -0.744218,0.2443 -0.744218,0.68039 0,0.35058 0.276372,0.57412 1.392851,1.02059 0.605879,0.25499 0.882556,0.58481 0.882556,1.2652 0,0.79735 -0.648633,1.45668 -1.435299,1.45668 -0.744218,0 -0.935387,-0.30844 -1.190687,-0.30844 -0.233923,0 -0.233923,-0.0107 -0.233923,-0.85049 0,-0.18079 -0.03176,-0.52098 0.127344,-0.52098 0.233923,0 0.116962,1.40323 1.265201,1.40323 0.520983,0 0.946075,-0.31882 0.946075,-0.87156 0,-0.56343 -0.542054,-0.73353 -0.967452,-0.93539 -0.574425,-0.28737 -1.286577,-0.56404 -1.286577,-1.31864 z"
     id="path3487" /><path
     d="m 85.413378,66.867968 c -0.499607,0 -0.57412,0 -0.57412,-0.0745 0,-0.0849 0.265988,-0.26568 0.808043,-0.86118 0.212546,-0.25499 0.318819,-0.48891 0.404021,-0.48891 0.148721,0 0.138338,0.22323 0.138338,0.98852 h 1.169311 c 0.265988,0 0.382644,-0.18079 0.41471,-0.18079 0.05314,0 0.07451,0.0531 0.07451,0.0852 0,0.0424 -0.03176,0.0956 -0.06383,0.14872 l -0.212546,0.38264 h -1.381857 v 3.09383 c 0.02107,0.43579 0.318819,0.63795 0.744218,0.63795 0.563431,0 0.72284,-0.24461 0.903627,-0.24461 0.04245,0 0.0849,0.0107 0.0849,0.0956 0,0.15941 -0.574119,0.52098 -1.318337,0.52098 -0.488918,0 -1.190687,-0.13833 -1.190687,-1.23313 v -2.87029 z"
     id="path3489" /><path
     d="m 88.090668,68.717668 c 0,-1.30765 1.031277,-2.42413 2.370686,-2.42413 0.808043,0 2.306857,0.39334 2.306857,2.37099 0,1.30765 -0.98852,2.30686 -2.296474,2.30686 -1.381857,3.1e-4 -2.381069,-0.81842 -2.381069,-2.25372 z m 3.933635,0.10627 c 0,-1.09479 -0.457158,-2.29647 -1.722359,-2.29647 -1.041966,0 -1.467058,0.91431 -1.467058,1.81794 0,1.04196 0.488917,2.40275 1.732741,2.40275 0.892939,3.1e-4 1.456676,-0.60588 1.456676,-1.92422 z"
     id="path3491" /><path
     d="m 94.533941,70.036008 c 0,0.73353 0.93538,0.4254 0.93538,0.71246 0,0.12734 -0.0745,0.14872 -0.23392,0.14872 -0.18079,0 -0.39333,-0.0425 -1.0099,-0.0425 -0.56343,0 -0.77628,0.0425 -0.90363,0.0425 -0.13834,0 -0.19147,-0.0214 -0.19147,-0.12765 0,-0.21255 0.62725,0 0.62725,-0.69108 v -2.63668 c 0,-0.63764 -0.78666,-0.36157 -0.78666,-0.58481 0,-0.0638 0.0424,-0.10627 0.0956,-0.11696 0.88225,-0.19117 1.09479,-0.53167 1.33941,-0.53167 0.0638,0 0.12765,0.0638 0.12765,0.1701 v 0.70146 c -0.0214,0.12765 0.51029,-0.78666 1.54157,-0.78666 1.42461,0 1.73274,1.18 1.73274,1.98804 v 1.75412 c 0,0.73353 0.82911,0.42539 0.82911,0.71245 0,0.12735 -0.0745,0.14873 -0.18078,0.14873 -0.13834,0 -0.40402,-0.0425 -0.92501,-0.0425 -0.40402,0 -0.62725,0.0425 -0.76529,0.0425 -0.13803,0 -0.19117,-0.0214 -0.19117,-0.12765 0,-0.21255 0.45716,0 0.45716,-0.69109 v -1.98804 c 0,-0.53167 -0.38264,-1.32902 -1.24382,-1.32902 -0.89294,0 -1.2652,0.65932 -1.25451,0.82942 v 2.44581 z"
     id="path3493" /><path
     d="m 99.594131,68.164928 c 0,1.75412 1.062729,2.2751 1.711669,2.2751 0.91401,0 1.2652,-0.55274 1.49882,-0.55274 0.0424,0 0.0424,0.0424 0.0424,0.0745 0,0.24461 -0.9247,1.0099 -1.88177,1.0099 -1.594709,0 -2.147449,-1.47775 -2.147449,-2.17952 0,-1.36078 0.7546,-2.49833 2.083619,-2.49833 1.30796,0 1.88177,1.2652 1.88177,1.6906 0,0.19117 -0.11696,0.18078 -0.36157,0.18078 h -2.827539 z m 2.094309,-0.28706 c 0.14903,0 0.21285,-0.0531 0.21285,-0.21255 0,-0.59549 -0.59519,-1.12686 -1.1803,-1.12686 -0.65902,0 -1.126559,0.75491 -1.126559,1.33971 h 2.094009 z"
     id="path3495" /><path
     d="m 107.68371,66.463948 c 0,0.36157 -0.0211,0.36157 0.40372,0.36157 h 1.14824 c 1.10579,0 0.81903,-0.85049 1.07403,-0.85049 0.0849,0 0.11727,0.11696 0.11727,0.20186 0,0.37226 -0.0214,0.73353 -0.0214,1.07372 0,0.27637 0.0214,0.55305 0.0214,0.8398 0,0.0956 -0.0431,0.13804 -0.11727,0.13804 -0.32951,0 0.0318,-0.93539 -0.86087,-0.93539 h -1.57334 c -0.22323,0 -0.19147,0.18079 -0.19147,0.3402 v 1.95597 c 0,0.62726 -0.0849,0.88256 0.80804,0.88256 2.45558,0 2.81716,-1.0948 2.9555,-1.0948 0.0742,0 0.0849,0.10627 0.0849,0.12735 0,0.38264 -0.27638,0.7549 -0.53168,1.03127 -0.33989,0.38265 -0.57381,0.36158 -1.04166,0.36158 -0.80804,0 -1.61608,-0.0638 -2.42412,-0.0425 -0.4254,0.0107 -0.87157,0.0425 -1.29696,0.0425 -0.0956,0 -0.15941,-0.0214 -0.15941,-0.10628 0.0211,-0.12765 0.12765,-0.10627 0.46784,-0.27637 0.27607,-0.12734 0.29775,-0.4254 0.29775,-0.925 v -4.84795 c 0,-0.47823 0,-0.98853 -0.57412,-1.07373 -0.0849,-0.0214 -0.31882,-0.0425 -0.31882,-0.1701 0,-0.0849 0.0635,-0.12734 0.37196,-0.12734 2.00911,0 2.56216,0.0425 3.00893,0.0425 0.21224,0 1.19038,-0.0425 1.5205,-0.0425 0.0846,0 0.10628,0.10627 0.10628,0.23392 0,1.18 -0.14903,1.2652 -0.21255,1.2652 -0.2553,0 -0.0849,-0.51029 -0.2553,-0.7549 -0.27637,-0.36158 -1.38186,-0.29775 -1.80725,-0.29775 -1.02059,0 -0.99922,-0.0425 -0.99922,0.6697 v 1.97736 z"
     id="path3497" /><path
     d="m 113.30733,70.036008 c 0,0.73353 0.93539,0.4254 0.93539,0.71246 0,0.12734 -0.0745,0.14872 -0.23392,0.14872 -0.18079,0 -0.39333,-0.0425 -1.0099,-0.0425 -0.56374,0 -0.77628,0.0425 -0.90393,0.0425 -0.13804,0 -0.19117,-0.0214 -0.19117,-0.12765 0,-0.21255 0.62725,0 0.62725,-0.69108 v -2.63668 c 0,-0.63764 -0.78666,-0.36157 -0.78666,-0.58481 0,-0.0638 0.0427,-0.10627 0.0956,-0.11696 0.88225,-0.19117 1.0951,-0.53167 1.33971,-0.53167 0.0635,0 0.12735,0.0638 0.12735,0.1701 v 0.70146 c -0.0211,0.12765 0.51029,-0.78666 1.54157,-0.78666 1.42461,0 1.73305,1.18 1.73305,1.98804 v 1.75412 c 0,0.73353 0.82941,0.42539 0.82941,0.71245 0,0.12735 -0.0745,0.14873 -0.18078,0.14873 -0.13834,0 -0.40433,-0.0425 -0.92501,-0.0425 -0.40371,0 -0.62756,0.0425 -0.76559,0.0425 -0.13803,0 -0.19117,-0.0214 -0.19117,-0.12765 0,-0.21255 0.45685,0 0.45685,-0.69109 v -1.98804 c 0,-0.53167 -0.38264,-1.32902 -1.24352,-1.32902 -0.89324,0 -1.2652,0.65932 -1.25451,0.82942 v 2.44581 z"
     id="path3499" /><path
     d="m 118.15529,68.164928 c 0,1.75412 1.06303,2.2751 1.71167,2.2751 0.91401,0 1.2652,-0.55274 1.49881,-0.55274 0.0425,0 0.0425,0.0424 0.0425,0.0745 0,0.24461 -0.92469,1.0099 -1.88176,1.0099 -1.59441,0 -2.14715,-1.47775 -2.14715,-2.17952 0,-1.36078 0.7546,-2.49833 2.08332,-2.49833 1.30796,0 1.88177,1.2652 1.88177,1.6906 0,0.19117 -0.11696,0.18078 -0.36157,0.18078 h -2.82754 z m 2.09431,-0.28706 c 0.14872,0 0.21255,-0.0531 0.21255,-0.21255 0,-0.59549 -0.59519,-1.12686 -1.18031,-1.12686 -0.65901,0 -1.12655,0.75491 -1.12655,1.33971 h 2.09431 z"
     id="path3501" /><path
     d="m 123.20418,69.961798 c 0,0.98852 0.94607,0.47823 0.94607,0.81873 0,0.0956 -0.0531,0.11696 -0.17009,0.11696 -0.14872,0 -0.40372,-0.0425 -0.99922,-0.0425 -0.71245,0 -0.90362,0.0425 -0.97783,0.0425 -0.0852,0 -0.11696,-0.0318 -0.11696,-0.0956 0,-0.22324 0.54205,-0.18079 0.54205,-0.61657 v -2.74295 c 0,-0.63764 -0.76559,-0.36157 -0.76559,-0.58481 0,-0.0638 0.0849,-0.10627 0.13803,-0.11696 0.81873,-0.19117 1.03128,-0.53167 1.27589,-0.53167 0.0638,0 0.12765,0.0638 0.12765,0.1701 v 0.79735 h 0.0211 c 0.22323,-0.30843 0.60588,-0.88255 1.05235,-0.88255 0.22323,0 0.70177,0.27637 0.70177,0.47853 0,0.15941 -0.255,0.47823 -0.38265,0.47823 -0.20216,0 -0.31912,-0.24461 -0.70177,-0.24461 -0.43578,0 -0.69108,0.48922 -0.69108,0.62726 v 2.32854 z"
     id="path3503" /><path
     d="m 128.69832,66.718938 c 0.51029,0 0.56343,-0.68039 0.71246,-0.68039 0.0953,0 0.0849,0.10627 0.0849,0.1701 0,0.81873 -0.15941,0.86118 -0.55304,1.10579 0.0428,0.18078 0.0742,0.37195 0.0742,0.56343 0,1.0099 -0.79705,1.62647 -1.7645,1.62647 -0.54205,0 -0.59549,-0.0849 -0.73353,-0.0849 -0.25499,0 -0.51029,0.3402 -0.51029,0.58481 0,0.0849 -0.0849,0.51029 1.2542,0.51029 0.89325,0 2.09462,-0.10627 2.09462,0.94638 0,0.66971 -0.56373,1.55226 -2.33923,1.55226 -0.68039,0 -1.79656,-0.25499 -1.79656,-1.12686 0,-0.43578 0.40402,-0.7549 0.77597,-0.89294 -0.29774,-0.11696 -0.40371,-0.47853 -0.40371,-0.8398 0,-0.4254 0.54205,-0.86118 0.55305,-0.86118 v -0.0214 c -0.43609,-0.26568 -0.6807,-0.78666 -0.6807,-1.30765 0,-0.96745 0.76529,-1.66922 1.71167,-1.66922 0.88255,-3e-4 1.22275,0.42479 1.5205,0.42479 z m -1.45637,-0.19117 c -0.78667,0 -1.04197,0.61657 -1.04197,1.30765 0,0.6697 0.29775,1.4353 1.08442,1.4353 0.74452,0 1.04196,-0.58481 1.04196,-1.2652 0,-0.67001 -0.28706,-1.47775 -1.08441,-1.47775 z m -0.15972,6.2405 c 1.45668,0 1.76481,-0.66971 1.76481,-1.05235 0,-0.44647 -0.37226,-0.46785 -1.46736,-0.49961 -0.89294,-0.0318 -1.03098,-0.10627 -1.11587,-0.10627 -0.32982,0 -0.52099,0.48922 -0.52099,0.76529 0,0.71215 0.75491,0.89294 1.33941,0.89294 z"
     id="path3505" /><path
     d="m 131.84437,72.980808 c -0.0107,0.0318 -0.20216,0.0318 -0.35088,0.0318 -0.14872,0 -0.39334,0.0107 -0.39334,-0.0745 0,-0.23392 0.96746,-1.03128 0.96746,-1.86039 0,-0.255 -0.11697,-0.48923 -0.21255,-0.71246 l -1.39285,-3.43403 c -0.0956,-0.23392 -0.49961,-0.24461 -0.49961,-0.39333 0,-0.10627 0.0638,-0.12735 0.21224,-0.12735 0.22324,0 0.45747,0.0425 0.74453,0.0425 0.37226,0 0.61687,-0.0425 0.78666,-0.0425 0.15911,0 0.22293,0.0211 0.22293,0.13834 0,0.22324 -0.60588,0.0107 -0.60588,0.43578 0,0.1701 0.0959,0.32951 0.0745,0.23393 l -0.0214,0.0214 1.13786,2.89167 0.81873,-2.40275 c 0.12765,-0.38264 0.12765,-0.47853 0.12765,-0.55305 0,-0.57412 -0.6807,-0.41471 -0.6807,-0.64863 0,-0.10627 0.12765,-0.11696 0.31912,-0.11696 0.12765,0 0.29775,0.0424 0.59519,0.0424 0.24462,0 0.43609,-0.0424 0.54206,-0.0424 0.12765,0 0.20216,0.0424 0.20216,0.12734 0,0.24461 -0.36157,-0.0211 -0.57442,0.61657 l -2.0195,5.8267 z"
     id="path3507" /><path
     d="m 135.06524,64.238008 c 0,-0.76926 0.62634,-1.3956 1.40293,-1.3956 0.77293,0 1.39529,0.62634 1.39529,1.3956 0,0.77628 -0.62236,1.40262 -1.39529,1.40262 -0.77689,0 -1.40293,-0.62634 -1.40293,-1.40262 z m 2.62965,0 c 0,-0.67764 -0.54938,-1.22703 -1.22702,-1.22703 -0.68101,0 -1.23039,0.54939 -1.23039,1.22703 0,0.68497 0.54938,1.23436 1.23039,1.23436 0.67764,-3.1e-4 1.22702,-0.54939 1.22702,-1.23436 z m -0.53075,0.78361 h -0.22721 l -0.44677,-0.72162 h -0.3515 v 0.72162 h -0.19056 v -1.56386 h 0.68101 c 0.13192,0 0.26385,0.007 0.38112,0.077 0.11726,0.066 0.1759,0.20492 0.1759,0.33684 0,0.30783 -0.21652,0.42112 -0.49442,0.42845 l 0.47243,0.72162 z m -0.73261,-0.87156 c 0.21957,0 0.56007,0.0367 0.56007,-0.28187 0,-0.24186 -0.21224,-0.27118 -0.40647,-0.27118 h -0.44677 v 0.55305 h 0.29317 z"
     id="path3509" /><path
     style="stroke:#000000;stroke-width:0.07634568"
     id="path3513"
     d="m 67.843697,75.615048 c 2.009723,0 2.56552,0.823 2.875483,0.823 0.08551,0 0.149638,-0.10688 0.256522,-0.10688 0.117572,0 0.117572,0.17101 0.149637,0.86576 0.02138,0.56649 0.117573,0.9192 -0.06413,0.9192 -0.128261,0 -0.203079,-0.2779 -0.245833,-0.35271 -0.66268,-1.14397 -1.421862,-1.83871 -2.800665,-1.83871 -2.084542,0 -3.089252,1.38949 -3.089252,3.37783 0,1.86009 1.06884,3.71987 3.121317,3.71987 1.678384,0 2.725846,-1.06884 2.886172,-1.5605 0.02138,-0.0748 0.08551,-0.13895 0.149638,-0.13895 0.05344,0 0.106884,0.0641 0.0962,0.11757 l -0.245833,1.06884 c -0.01069,0.0428 -0.769564,0.84469 -3.174758,0.84469 -2.191427,0 -3.762621,-1.50737 -3.762621,-3.72018 0,-2.21249 1.592571,-4.01883 3.848128,-4.01883 z" /><path
     style="stroke:#000000;stroke-width:0.07634568"
     id="path3515"
     d="m 71.765727,81.088118 c 0,-1.31498 1.036774,-2.43726 2.383818,-2.43726 0.812318,0 2.319687,0.39547 2.319687,2.38382 0,1.31497 -0.994021,2.31968 -2.308999,2.31968 -1.389797,0 -2.394506,-0.82331 -2.394506,-2.26624 z m 3.955317,0.10688 c 0,-1.1009 -0.459601,-2.309 -1.73152,-2.309 -1.047768,0 -1.475304,0.9192 -1.475304,1.82802 0,1.04747 0.491666,2.41589 1.742514,2.41589 0.897825,-3.1e-4 1.46431,-0.60955 1.46431,-1.93491 z" /><path
     style="stroke:#000000;stroke-width:0.07634568"
     id="path3517"
     d="m 77.109925,81.088118 c 0,-1.31498 1.036774,-2.43726 2.383817,-2.43726 0.812318,0 2.319687,0.39547 2.319687,2.38382 0,1.31497 -0.99402,2.31968 -2.308998,2.31968 -1.389797,0 -2.394506,-0.82331 -2.394506,-2.26624 z m 3.955317,0.10688 c 0,-1.1009 -0.459601,-2.309 -1.73152,-2.309 -1.047769,0 -1.475304,0.9192 -1.475304,1.82802 0,1.04747 0.491666,2.41589 1.742513,2.41589 0.897826,-3.1e-4 1.464311,-0.60955 1.464311,-1.93491 z" /><path
     style="stroke:#000000;stroke-width:0.07634568"
     id="path3519"
     d="m 83.726041,84.615588 c 0,0.70544 0.983638,0.43823 0.983638,0.69475 0,0.12826 -0.07482,0.13895 -0.203079,0.13895 -0.13895,0 -0.395471,-0.0428 -1.111899,-0.0428 -0.416847,0 -0.726811,0.0428 -0.844383,0.0428 -0.0962,0 -0.160326,-0.0214 -0.160326,-0.11757 0,-0.2779 0.555796,-0.10689 0.555796,-0.75888 v -4.76764 c 0,-0.6413 -0.72681,-0.3634 -0.72681,-0.58786 0,-0.0641 0.04275,-0.10688 0.09619,-0.11757 0.823007,-0.19239 1.036774,-0.53442 1.282608,-0.53442 0.06413,0 0.12826,0.0641 0.12826,0.17101 v 0.61993 c 0.651992,-0.60924 1.176029,-0.70543 1.464616,-0.70543 1.26123,0 1.913528,0.99402 1.913528,2.17005 0,0.98333 -0.619927,2.53345 -2.276934,2.53345 -0.384782,0 -0.758876,-0.11757 -1.100904,-0.28858 v 1.54981 z m 0,-2.4907 c 0,0.57717 0.662681,0.97265 1.389797,0.97265 0.983332,0 1.40018,-0.94058 1.40018,-1.78527 0,-0.97265 -0.491666,-2.15936 -1.624942,-2.15936 -1.090216,0 -1.175723,0.823 -1.165035,0.84469 v 2.12729 z" /><path
     style="stroke:#000000;stroke-width:0.07634568"
     id="path3521"
     d="m 88.610943,80.532018 c 0,1.76358 1.06884,2.28762 1.721137,2.28762 0.919202,0 1.271919,-0.5558 1.507064,-0.5558 0.04275,0 0.04275,0.0428 0.04275,0.0748 0,0.24583 -0.929891,1.0157 -1.891846,1.0157 -1.603565,0 -2.159362,-1.48599 -2.159362,-2.19142 0,-1.36812 0.758876,-2.51208 2.094926,-2.51208 1.314978,0 1.892151,1.27222 1.892151,1.69945 0,0.19239 -0.117572,0.18171 -0.363405,0.18171 h -2.843419 z m 2.105614,-0.28859 c 0.149638,0 0.213768,-0.0534 0.213768,-0.21377 0,-0.59855 -0.59855,-1.13297 -1.186412,-1.13297 -0.66268,0 -1.13297,0.75888 -1.13297,1.34674 h 2.105614 z" /><path
     style="stroke:#000000;stroke-width:0.07634568"
     id="path3523"
     d="m 93.954831,82.338658 c 0,0.99402 0.95158,0.48098 0.95158,0.82301 0,0.0962 -0.0534,0.11757 -0.17102,0.11757 -0.14964,0 -0.40646,-0.0428 -1.00501,-0.0428 -0.71612,0 -0.90852,0.0428 -0.98333,0.0428 -0.0855,0 -0.11758,-0.0321 -0.11758,-0.0962 0,-0.22445 0.54511,-0.1817 0.54511,-0.61992 v -2.75792 c 0,-0.6413 -0.76956,-0.3634 -0.76956,-0.58786 0,-0.0641 0.0855,-0.10688 0.13895,-0.11757 0.823,-0.19239 1.03677,-0.53442 1.2826,-0.53442 0.0641,0 0.12826,0.0641 0.12826,0.17101 v 0.80163 h 0.0214 c 0.22446,-0.30996 0.60924,-0.88713 1.05815,-0.88713 0.22446,0 0.70544,0.2779 0.70544,0.48098 0,0.16032 -0.25652,0.48097 -0.38478,0.48097 -0.20308,0 -0.32066,-0.24583 -0.70544,-0.24583 -0.43822,0 -0.69474,0.49167 -0.69474,0.63062 v 2.34106 z" /><path
     style="stroke:#000000;stroke-width:0.07634568"
     id="path3525"
     d="m 98.903871,79.858648 c 0,-0.5558 -0.43823,-0.92989 -1.10091,-0.92989 -0.51304,0 -0.92989,0.0534 -0.92989,0.6413 0,0.16033 0.0641,0.32065 0.0641,0.43822 0,0.11758 -0.0321,0.20308 -0.23514,0.20308 -0.18171,0 -0.50236,-0.16032 -0.50236,-0.35271 0.0107,-0.49167 0.60924,-1.24016 1.79565,-1.2081 0.66268,0 1.68907,0.19239 1.68907,1.10091 v 2.2128 c 0,0.36341 -0.0962,0.99402 0.459609,0.99402 0.0427,0 0.13894,-0.0214 0.1817,-0.0214 0.0534,0 0.13895,0 0.13895,0.0748 0,0.22446 -0.470289,0.26721 -0.619929,0.26721 -0.41685,0 -0.69475,-0.19239 -0.83369,-0.54511 -0.44892,0.38479 -1.03708,0.61993 -1.63563,0.61993 -0.69475,0 -1.15435,-0.25652 -1.15435,-1.0157 0,-0.56649 0.1817,-1.23986 2.68309,-1.6567 v -0.8227 z m 0,1.07952 c -0.68406,0.14964 -1.98835,0.32066 -1.98835,1.26123 0,0.60955 0.30996,0.84469 0.87645,0.84469 0.38478,0 1.1119,-0.29927 1.1119,-0.86576 v -1.24016 z" /><path
     style="stroke:#000000;stroke-width:0.07634568"
     id="path3527"
     d="m 101.44709,79.228028 c -0.50235,0 -0.57717,0 -0.57717,-0.0748 0,-0.0855 0.26721,-0.26721 0.81232,-0.86576 0.21377,-0.25652 0.32065,-0.49166 0.40616,-0.49166 0.14963,0 0.13895,0.22445 0.13895,0.99402 h 1.17603 c 0.26721,0 0.38478,-0.18171 0.41684,-0.18171 0.0534,0 0.0748,0.0535 0.0748,0.0855 0,0.0428 -0.0321,0.0962 -0.0641,0.14964 l -0.21377,0.38478 h -1.38979 v 3.11063 c 0.0214,0.43822 0.32065,0.6413 0.74819,0.6413 0.56648,0 0.72681,-0.24583 0.90881,-0.24583 0.0427,0 0.0855,0.0107 0.0855,0.0962 0,0.16032 -0.57717,0.52373 -1.32536,0.52373 -0.49166,0 -1.1971,-0.13895 -1.1971,-1.24016 v -2.88587 z" /><path
     style="stroke:#000000;stroke-width:0.07634568"
     id="path3529"
     d="m 105.2201,79.805198 c 0,-0.6413 -0.58786,-0.3634 -0.58786,-0.58786 0,-0.0641 0.0427,-0.10688 0.0962,-0.11757 0.68405,-0.19239 0.89782,-0.53442 1.14396,-0.53442 0.0641,0 0.12826,0.0641 0.12826,0.17101 v 3.83744 c 0,0.54511 0.84438,0.30997 0.84438,0.58787 0,0.0855 -0.0641,0.11757 -0.20308,0.11757 -0.22445,0 -0.55579,-0.0428 -0.99402,-0.0428 -0.34203,0 -0.61992,0.0428 -0.7375,0.0428 -0.0855,0 -0.14963,-0.0107 -0.16032,-0.11757 0,-0.26721 0.47029,0.13894 0.47029,-0.8337 v -2.52277 z m 0.83369,-2.78997 c 0,0.12826 -0.30996,0.55579 -0.44891,0.55579 -0.12826,0 -0.44891,-0.43853 -0.44891,-0.55579 0,-0.11757 0.32065,-0.56649 0.44891,-0.56649 0.13925,0 0.44891,0.43823 0.44891,0.56649 z" /><path
     style="stroke:#000000;stroke-width:0.07634568"
     id="path3531"
     d="m 109.9126,82.370718 0.71613,-1.53943 c 0.20308,-0.42754 0.47029,-0.87645 0.47029,-1.35743 0,-0.59855 -0.66268,-0.29927 -0.66268,-0.56648 0,-0.12826 0.11757,-0.13895 0.25652,-0.13895 0.22445,0 0.42753,0.0427 0.66268,0.0427 0.1817,0 0.37409,-0.0427 0.55579,-0.0427 0.10689,0 0.28859,0.0107 0.28859,0.16033 0,0.13895 -0.38478,0.0748 -0.53442,0.39547 l -1.63532,3.46334 c -0.20308,0.43823 -0.20308,0.56649 -0.36341,0.56649 -0.13895,0 -0.1817,-0.18171 -0.21377,-0.25652 l -1.61425,-3.68781 c -0.20308,-0.48097 -0.58786,-0.32065 -0.58786,-0.51304 0,-0.0748 0.0107,-0.12826 0.22446,-0.12826 0.20308,0 0.20308,0.0427 0.90851,0.0427 0.39547,0 0.53442,-0.0427 0.66268,-0.0427 0.14964,0 0.24583,0 0.24583,0.11757 0,0.21377 -0.60923,0.0748 -0.60923,0.39547 0,0.0321 0.0534,0.20308 0.1817,0.52373 l 1.04776,2.56552 z" /><path
     style="stroke:#000000;stroke-width:0.07634568"
     id="path3533"
     d="m 113.53567,80.532018 c 0,1.76358 1.06883,2.28762 1.72113,2.28762 0.9192,0 1.27192,-0.5558 1.50737,-0.5558 0.0428,0 0.0428,0.0428 0.0428,0.0748 0,0.24583 -0.92989,1.0157 -1.89184,1.0157 -1.60357,0 -2.15936,-1.48599 -2.15936,-2.19142 0,-1.36812 0.75887,-2.51208 2.09492,-2.51208 1.31498,0 1.89215,1.27222 1.89215,1.69945 0,0.19239 -0.11757,0.18171 -0.3634,0.18171 h -2.84372 z m 2.10591,-0.28859 c 0.14964,0 0.21377,-0.0534 0.21377,-0.21377 0,-0.59855 -0.59855,-1.13297 -1.18641,-1.13297 -0.66268,0 -1.13297,0.75888 -1.13297,1.34674 h 2.10561 z" /><path
     style="stroke:#000000;stroke-width:0.07634568"
     id="path3535"
     d="m 117.57588,79.933468 c 0,-0.85508 0.66268,-1.28292 1.44293,-1.28292 0.1817,0 0.9192,0.0855 1.04777,0.24584 0.0641,0.0855 0.0534,0.44891 0.0534,0.52373 0,0.28858 0.0428,0.41684 -0.11757,0.41684 -0.10688,0 -0.20339,-0.92989 -1.17603,-0.92989 -0.41685,0 -0.74819,0.24584 -0.74819,0.68406 0,0.35272 0.2779,0.57717 1.40018,1.02609 0.60924,0.25652 0.88714,0.58786 0.88714,1.27192 0,0.80163 -0.65199,1.46461 -1.44324,1.46461 -0.74819,0 -0.94058,-0.30996 -1.1971,-0.30996 -0.23514,0 -0.23514,-0.0107 -0.23514,-0.85507 0,-0.18171 -0.0321,-0.52373 0.12826,-0.52373 0.23514,0 0.11757,1.41117 1.27222,1.41117 0.52373,0 0.95127,-0.32065 0.95127,-0.87676 0,-0.56648 -0.54511,-0.73749 -0.97265,-0.94057 -0.57717,-0.28859 -1.29329,-0.56649 -1.29329,-1.32536 z" /><path
     style="stroke:#000000;stroke-width:0.07634568"
     id="path3537"
     d="m 76.655821,93.303428 c 0,-1.31498 1.036774,-2.43726 2.383817,-2.43726 0.812318,0 2.319687,0.39547 2.319687,2.38381 0,1.31498 -0.994021,2.31969 -2.308999,2.31969 -1.389796,0 -2.394505,-0.82331 -2.394505,-2.26624 z m 3.955011,0.10688 c 0,-1.1009 -0.459601,-2.309 -1.73152,-2.309 -1.047768,0 -1.475304,0.9192 -1.475304,1.82802 0,1.04746 0.491666,2.41588 1.742514,2.41588 0.897825,-3e-4 1.46431,-0.60954 1.46431,-1.9349 z" /><path
     style="stroke:#000000;stroke-width:0.07634568"
     id="path3539"
     d="m 82.545126,91.005118 c 0,-0.79095 0.20308,-1.5715 0.630616,-2.25556 0.245833,-0.38478 0.972949,-1.14396 1.731825,-1.14396 0.138949,0 0.438224,0.0428 0.438224,0.22445 0,0.20308 -0.04275,0.75888 -0.160326,0.75888 -0.149637,0 -0.05344,-0.44892 -0.726811,-0.44892 -0.566485,0 -0.951267,0.60924 -1.047768,1.10091 -0.106884,0.56648 -0.08551,1.18641 -0.08551,1.76358 h 0.823007 c 0.267209,0 0.384782,-0.1817 0.416847,-0.1817 0.05344,0 0.07482,0.0534 0.07482,0.0855 0,0.0427 -0.03207,0.0962 -0.06413,0.14964 l -0.213768,0.38478 h -1.037079 v 3.24958 c 0,0.68405 0.758876,0.42753 0.758876,0.66268 0,0.12826 -0.138949,0.0962 -0.224456,0.0962 h -1.656702 c -0.05344,0 -0.171014,0.0214 -0.171014,-0.0641 0,-0.22445 0.513043,-0.0962 0.513043,-0.60924 v -3.33508 h -0.726811 l 0.06413,-0.43823 h 0.662986 z" /><path
     style="stroke:#000000;stroke-width:0.07634568"
     id="path3541"
     d="m 88.637512,88.845748 c -0.01069,-0.78025 -0.86576,-0.56648 -0.86576,-0.80163 0,-0.0962 0.02138,-0.11757 0.106883,-0.11757 0.395471,0 0.780253,0.0428 1.175724,0.0428 0.33134,0 0.66268,-0.0428 0.994021,-0.0428 0.171014,0 0.203079,0.0214 0.203079,0.10689 0,0.25652 -0.769564,0.0107 -0.769564,0.81231 v 5.74028 c 0,0.72681 0.951267,0.48098 0.951267,0.80163 0,0.0748 -0.03206,0.10689 -0.213768,0.10689 -0.245833,0 -0.705434,-0.0428 -1.165035,-0.0428 -0.651992,0 -0.876448,0.0428 -1.026086,0.0428 -0.192391,0 -0.224456,-0.0535 -0.224456,-0.16033 0,-0.30996 0.833695,0.0428 0.833695,-1.0154 v -5.47307 z" /><path
     style="stroke:#000000;stroke-width:0.07634568"
     id="path3543"
     d="m 91.202421,93.303428 c 0,-1.31498 1.036774,-2.43726 2.38382,-2.43726 0.81232,0 2.31968,0.39547 2.31968,2.38381 0,1.31498 -0.99402,2.31969 -2.30899,2.31969 -1.389801,0 -2.39451,-0.82331 -2.39451,-2.26624 z m 3.95532,0.10688 c 0,-1.1009 -0.4596,-2.309 -1.73152,-2.309 -1.04777,0 -1.475307,0.9192 -1.475307,1.82802 0,1.04746 0.491667,2.41588 1.742517,2.41588 0.89782,-3e-4 1.46431,-0.60954 1.46431,-1.9349 z" /><path
     style="stroke:#000000;stroke-width:0.07634568"
     id="path3545"
     d="m 101.37838,94.949438 c -0.0641,0.14964 -0.19239,0.61993 -0.38478,0.61993 -0.20308,0 -0.23545,-0.2779 -0.33134,-0.5558 l -0.790939,-2.20212 -1.03678,2.2235 c -0.0855,0.1817 -0.17101,0.53442 -0.39547,0.53442 -0.16032,0 -0.23514,-0.33134 -0.40616,-0.81263 l -0.98333,-2.81135 c -0.3634,-1.03708 -0.69474,-0.63062 -0.69474,-0.85538 0,-0.0748 0.0641,-0.10688 0.12826,-0.10688 0.25652,0 0.41684,0.0428 0.67337,0.0428 0.25652,0 0.52373,-0.0428 0.88713,-0.0428 0.0748,0 0.0962,0.0748 0.0962,0.13895 0,0.13895 -0.3634,0.12826 -0.3634,0.41684 0,0.21377 0.0641,0.40647 0.1817,0.7485 l 0.76987,2.24487 1.0154,-2.1273 -0.35272,-0.87645 c -0.10688,-0.28859 -0.5558,-0.25652 -0.5558,-0.39547 0,-0.10688 0.11758,-0.14964 0.20308,-0.14964 0.22446,0 0.45961,0.0428 0.68406,0.0428 0.22446,0 0.459599,-0.0428 0.684059,-0.0428 0.0962,0 0.26721,0.0107 0.26721,0.14964 0,0.13895 -0.38478,0.13895 -0.38478,0.38478 0,0.16033 0.0748,0.3741 0.21376,0.79094 l 0.74819,2.2235 0.94089,-2.34107 c 0.0748,-0.19239 0.0855,-0.3634 0.0855,-0.51304 0,-0.41685 -0.61993,-0.35272 -0.61993,-0.5558 0,-0.11757 0.17101,-0.13895 0.22446,-0.13895 0.20308,0.0214 0.41684,0.0428 0.61992,0.0428 0.18171,0 0.36341,-0.0428 0.54511,-0.0428 0.0855,0 0.17102,0.0321 0.17102,0.12826 0,0.16033 -0.2779,0.11758 -0.42754,0.48098 l -1.41148,3.35677 z" /><path
     style="stroke:#000000;stroke-width:0.07634568"
     id="path3547"
     d="m 106.47644,92.073958 c 0,-0.5558 -0.43822,-0.9299 -1.1009,-0.9299 -0.51305,0 -0.92989,0.0534 -0.92989,0.64131 0,0.16032 0.0641,0.32065 0.0641,0.43822 0,0.11757 -0.0321,0.20308 -0.23515,0.20308 -0.1817,0 -0.50235,-0.16032 -0.50235,-0.35271 0.0107,-0.49167 0.60924,-1.24016 1.79565,-1.2081 0.66268,0 1.68907,0.19239 1.68907,1.10091 v 2.2128 c 0,0.3634 -0.0962,0.99402 0.4596,0.99402 0.0427,0 0.13895,-0.0214 0.1817,-0.0214 0.0534,0 0.13895,0 0.13895,0.0748 0,0.22446 -0.47029,0.26721 -0.61992,0.26721 -0.41685,0 -0.69475,-0.19239 -0.8337,-0.54511 -0.44891,0.38479 -1.03708,0.61993 -1.63563,0.61993 -0.69474,0 -1.15435,-0.25652 -1.15435,-1.0157 0,-0.56649 0.18171,-1.23986 2.6831,-1.6567 v -0.8227 z m 0,1.07952 c -0.68406,0.14964 -1.98835,0.32065 -1.98835,1.26123 0,0.60955 0.30997,0.84469 0.87645,0.84469 0.38479,0 1.1119,-0.29927 1.1119,-0.86576 v -1.24016 z" /></g><g
   inkscape:groupmode="layer"
   id="layer12"
   inkscape:label="TIP"
   style="display:none"><image
     sodipodi:absref="/home/akrherz/projects/nwnwebsite/imgsrc/inkscape_pasted_image_20101231_083453.png"
     xlink:href="inkscape_pasted_image_20101231_083453.png"
     width="100.9661"
     height="33.830509"
     id="image4048"
     x="33.838982"
     y="63.59322" /></g><g
   inkscape:groupmode="layer"
   id="layer13"
   inkscape:label="Racoon"
   style="display:none"><image
     sodipodi:absref="/home/akrherz/projects/nwnwebsite/imgsrc/inkscape_pasted_image_20101231_084108.png"
     xlink:href="inkscape_pasted_image_20101231_084108.png"
     width="108.25837"
     height="33.372883"
     id="image4075"
     x="29.262709"
     y="65.516953" /></g><g
   inkscape:groupmode="layer"
   id="layer14"
   inkscape:label="SW Iowa"
   style="display:none"><image
     sodipodi:absref="/home/akrherz/projects/nwnwebsite/imgsrc/inkscape_pasted_image_20101231_084634.png"
     xlink:href="inkscape_pasted_image_20101231_084634.png"
     width="86.779251"
     height="32.254238"
     id="image4104"
     x="37.567799"
     y="65.016953" /></g><g
   inkscape:groupmode="layer"
   id="layer15"
   inkscape:label="Stuart"
   style="display:none"><image
     sodipodi:absref="/home/akrherz/projects/nwnwebsite/imgsrc/inkscape_pasted_image_20101231_084955.png"
     xlink:href="inkscape_pasted_image_20101231_084955.png"
     width="93.956177"
     height="32.101696"
     id="image4129"
     x="39.152542"
     y="63.398304" /></g></svg>